<svg id="Layer_1" data-name="Layer 1" xmlns="http://www.w3.org/2000/svg" viewBox="0 0 283.46 283.46"><defs><style>.cls-1{fill:#fff;}.cls-2{fill:#ed2024;stroke:#ed2024;stroke-miterlimit:10;}</style></defs><rect class="cls-1" x="29.41" y="29.41" width="224.64" height="224.64" rx="44.31"/><path class="cls-1" d="M209.74,27.41h-136A46.37,46.37,0,0,0,27.41,73.72v136a46.36,46.36,0,0,0,46.31,46.31h136a46.36,46.36,0,0,0,46.31-46.31v-136A46.36,46.36,0,0,0,209.74,27.41Zm44.31,182.33a44.36,44.36,0,0,1-44.31,44.31h-136a44.36,44.36,0,0,1-44.31-44.31v-136A44.36,44.36,0,0,1,73.72,29.41h136a44.36,44.36,0,0,1,44.31,44.31Z"/><path d="M103.85,272.6l.15-.7a1.46,1.46,0,0,0-.26-1.23,1.44,1.44,0,0,0-1.14-.51H98.83c-.21,0-.27-.1-.3-.18a.9.9,0,0,0-.84-.57h-.41a.28.28,0,0,0-.27.22l0,.13a1.47,1.47,0,0,0,.26,1.24,1.45,1.45,0,0,0,1.15.51h3.76a.34.34,0,0,1,.28.12.37.37,0,0,1,.07.31l-.08.36a.63.63,0,0,1-.59.48h-4.5a.89.89,0,0,0-.57.21.92.92,0,0,0-.33.52.61.61,0,0,0,.12.56.66.66,0,0,0,.51.23h4.7a2.24,2.24,0,0,0,2.09-1.7m-7.37-3.92a.32.32,0,0,1-.08-.24v0h0a1.48,1.48,0,0,1,1.36-1.11l5.64,0a.61.61,0,0,1,.62.77h0a1,1,0,0,1-1,.69H96.71a.28.28,0,0,1-.23-.1"/><path d="M107.2,267.29h-.57a1.46,1.46,0,0,0-1.36,1.12.26.26,0,0,0,.26.32h2.18l.13-.63a.63.63,0,0,0-.12-.57A.66.66,0,0,0,107.2,267.29Zm3.6,4.16h-3.35a.41.41,0,0,0-.38.31l-.38,1.77a1,1,0,0,1-.93.76.68.68,0,0,1-.53-.24.7.7,0,0,1-.12-.57l.82-3.84a.34.34,0,0,1,.34-.28h.84a.37.37,0,0,1,.29.14.41.41,0,0,1,.08.32h0a.23.23,0,0,0,0,.2.24.24,0,0,0,.17.07H111a.42.42,0,0,0,.39-.32l.36-1.72a1,1,0,0,1,.94-.76.66.66,0,0,1,.52.24.67.67,0,0,1,.13.57l-1.16,5.43a1,1,0,0,1-.93.76.68.68,0,0,1-.53-.24.7.7,0,0,1-.12-.57l.38-1.76a.26.26,0,0,0,0-.2.21.21,0,0,0-.18-.07"/><path d="M114.66,273.8a1.48,1.48,0,0,1-.27-1.24c.23-1.07.39-1.8.5-2.34l.12-.57a.29.29,0,0,1,.27-.23h.08a1.07,1.07,0,0,1,.82.39,1,1,0,0,1,.21.88l-.35,1.67a.33.33,0,0,0,.34.43h3.86a.63.63,0,0,0,.59-.48l.66-3.09a.37.37,0,0,0-.07-.31.34.34,0,0,0-.28-.12h-6.37a.28.28,0,0,1-.26-.14h0a.41.41,0,0,1,0-.16v0h0a1.49,1.49,0,0,1,1.36-1.11h5.89a1.41,1.41,0,0,1,1.14.51,1.49,1.49,0,0,1,.27,1.24l-.76,3.57a2.24,2.24,0,0,1-1.08,1.42h0a.4.4,0,0,0-.21.37.77.77,0,0,1-.13.58,1,1,0,0,1-.8.45H120a.63.63,0,0,1-.52-.51l-.09-.44a.27.27,0,0,0-.21-.16H115.8A1.43,1.43,0,0,1,114.66,273.8Z"/><path d="M126.19,267.29h-.57a1.46,1.46,0,0,0-1.36,1.12.26.26,0,0,0,.26.32h2.18l.14-.63a.67.67,0,0,0-.13-.57A.66.66,0,0,0,126.19,267.29Zm-.1,2.46a1.07,1.07,0,0,1,.21.88l-.62,2.9a1,1,0,0,1-.93.76.68.68,0,0,1-.53-.24.7.7,0,0,1-.12-.57l.82-3.84a.34.34,0,0,1,.34-.28h0A1.07,1.07,0,0,1,126.09,269.75Z"/><path d="M135.81,267.8a1.45,1.45,0,0,1,.26,1.24l-.36,1.69a2.23,2.23,0,0,1-2.08,1.7h-3.81a.42.42,0,0,0-.39.32l-.17.81a1,1,0,0,1-.9.73h-.05a.63.63,0,0,1-.51-.23.66.66,0,0,1-.12-.55c.32-1.5.53-2.51.67-3.18l.15-.69a.33.33,0,0,1,.33-.26h0a1,1,0,0,1,.82.39,1,1,0,0,1,.21.88l0,.07a.26.26,0,0,0,0,.2.21.21,0,0,0,.18.07h3.37a.8.8,0,0,0,.74-.6l.23-1.11a.39.39,0,0,0-.35-.5h-5.9a.28.28,0,0,1-.23-.1.35.35,0,0,1-.07-.24v0h0a1.47,1.47,0,0,1,1.36-1.11h5.43a1.43,1.43,0,0,1,1.14.51"/><path d="M143.21,270.12h-3.68a.21.21,0,0,1-.18-.07.22.22,0,0,1,0-.2.36.36,0,0,0-.08-.3.35.35,0,0,0-.28-.14h-.84a.36.36,0,0,0-.36.3l-.81,3.78a.7.7,0,0,0,.12.57.68.68,0,0,0,.53.24,1,1,0,0,0,.93-.76l.37-1.74a.42.42,0,0,1,.39-.32H143a.86.86,0,0,0,.81-.65.57.57,0,0,0-.57-.71m1.45-2.59a.66.66,0,0,1,.12.55h0a1,1,0,0,1-1,.69h-6.35a.28.28,0,0,1-.23-.1.27.27,0,0,1-.07-.24v0h0a1.48,1.48,0,0,1,1.36-1.11l5.64,0a.65.65,0,0,1,.5.22"/><path d="M147.62,267.29h-.57a1.46,1.46,0,0,0-1.36,1.12.26.26,0,0,0,.26.32h2.18l.14-.63a.67.67,0,0,0-.13-.57.66.66,0,0,0-.52-.24m-.1,2.46a1.07,1.07,0,0,1,.21.88l-.62,2.9a1,1,0,0,1-.93.76.68.68,0,0,1-.53-.24.7.7,0,0,1-.12-.57l.82-3.84a.34.34,0,0,1,.34-.28h0a1.07,1.07,0,0,1,.82.39"/><path d="M152.12,269.41a.37.37,0,0,0-.36.29l-.8,3.79a.66.66,0,0,0,.12.57.65.65,0,0,0,.53.24,1,1,0,0,0,.93-.76l.61-2.86a1.07,1.07,0,0,0-.21-.88A1,1,0,0,0,152.12,269.41Zm3.34-.62h-6a.35.35,0,0,1-.23-.1.37.37,0,0,1-.07-.24v-.05h0a1.43,1.43,0,0,1,.49-.78,1.41,1.41,0,0,1,.87-.33h5.2a.61.61,0,0,1,.62.77,1,1,0,0,1-.89.73"/><path d="M156.65,273.77a.59.59,0,0,1,.6-.63.63.63,0,1,1-.6.63"/><path d="M163.3,268.73h3.45l-.27-.84a.88.88,0,0,0-.85-.59h-1.22a1.46,1.46,0,0,0-1.36,1.12.25.25,0,0,0,0,.22.26.26,0,0,0,.2.1m2.91,4.51h-3.84a.62.62,0,0,0-.48.26l-.24.32a1.11,1.11,0,0,1-1,.46.6.6,0,0,1-.49-.37h0a.76.76,0,0,1,.13-.73l2.88-3.82h1.51a.12.12,0,0,1,.11.08.11.11,0,0,1,0,.12l-1.41,1.91a.29.29,0,0,0,0,.29.28.28,0,0,0,.2.12h2a.38.38,0,0,0,.3-.15.43.43,0,0,0,.08-.3l-.59-1.89a.13.13,0,0,1,.1-.18h.65a1.22,1.22,0,0,1,1.16.84l1,3a.74.74,0,0,1-.16.71.91.91,0,0,1-.7.34h-.16a.76.76,0,0,1-.58-.5l-.09-.31a.32.32,0,0,0-.34-.22"/><path d="M177.48,267.8a1.45,1.45,0,0,1,.26,1.24l-.36,1.69a2.24,2.24,0,0,1-2.08,1.7h-3.81a.42.42,0,0,0-.39.32l-.17.81a1,1,0,0,1-.9.73H170a.63.63,0,0,1-.51-.23.62.62,0,0,1-.12-.55c.32-1.5.53-2.51.67-3.18l.15-.69a.33.33,0,0,1,.33-.26h0a1,1,0,0,1,.82.39,1,1,0,0,1,.21.88l0,.07a.26.26,0,0,0,0,.2.21.21,0,0,0,.18.07h3.37a.8.8,0,0,0,.74-.6l.23-1.11a.39.39,0,0,0-.35-.5h-5.9a.28.28,0,0,1-.23-.1.35.35,0,0,1-.07-.24v0h0a1.47,1.47,0,0,1,1.36-1.11h5.43a1.43,1.43,0,0,1,1.14.51"/><path d="M186.76,267.8A1.45,1.45,0,0,1,187,269l-.36,1.69a2.23,2.23,0,0,1-2.08,1.7h-3.81a.42.42,0,0,0-.39.32l-.17.81a1,1,0,0,1-.9.73h-.05a.63.63,0,0,1-.51-.23.66.66,0,0,1-.12-.55c.32-1.5.53-2.51.67-3.18l.15-.69a.33.33,0,0,1,.33-.26h0a1,1,0,0,1,.82.39,1,1,0,0,1,.21.88l0,.07a.26.26,0,0,0,0,.2.21.21,0,0,0,.18.07h3.37a.8.8,0,0,0,.74-.6l.23-1.11a.39.39,0,0,0-.35-.5h-5.9a.28.28,0,0,1-.23-.1.35.35,0,0,1-.07-.24v0h0a1.47,1.47,0,0,1,1.36-1.11h5.43a1.43,1.43,0,0,1,1.14.51"/><path d="M209.74,27.41h-136A46.37,46.37,0,0,0,27.41,73.72v136a46.36,46.36,0,0,0,46.31,46.31h136a46.36,46.36,0,0,0,46.31-46.31v-136a46.36,46.36,0,0,0-46.31-46.31m44.31,182.33a44.36,44.36,0,0,1-44.31,44.31h-136a44.36,44.36,0,0,1-44.31-44.31v-136A44.36,44.36,0,0,1,73.72,29.41h136a44.36,44.36,0,0,1,44.31,44.31Z"/><path d="M171.76,169.91l-7.49,43a2.71,2.71,0,0,0,.37,2.36,3,3,0,0,0,2.39.88h10a3.34,3.34,0,0,0,3.47-3l7.57-43.25Z"/><path d="M113.88,178.6h-21l1.52-8.69H78.09L70.57,213a2.68,2.68,0,0,0,.36,2.33,2.88,2.88,0,0,0,2.36.87H83.36c1.28,0,2.92-.52,3.42-3l3.7-21h21.36a3.23,3.23,0,0,0,3.47-2.94l1.32-7.44a2.81,2.81,0,0,0-.43-2.36,2.91,2.91,0,0,0-2.32-.85"/><path d="M121.65,153.42a3,3,0,0,0-2.33-.85H84a3.17,3.17,0,0,0-3.43,3.05L78.7,166.43h38.67a3.18,3.18,0,0,0,3.46-3l1.34-7.63a2.88,2.88,0,0,0-.52-2.35"/><path d="M146.75,166.43l1.9-10.7a2.62,2.62,0,0,0-.35-2.28,3,3,0,0,0-2.41-.88H135.76a3.14,3.14,0,0,0-3.39,3l-1.88,10.84Z"/><path d="M129.87,169.91,122.34,213a2.76,2.76,0,0,0,.38,2.35,2.92,2.92,0,0,0,2.38.87h10a3.34,3.34,0,0,0,3.47-3l7.56-43.25Z"/><path d="M204.4,166.42H156.73l1.9-10.84a3.14,3.14,0,0,1,3.37-3h41.49a2.91,2.91,0,0,1,2.38.88,2.76,2.76,0,0,1,.38,2.35Z"/><path class="cls-2" d="M106.77,124.74l0,.12h0a2.65,2.65,0,0,1-2.51,1.79l-21.51,0a.42.42,0,0,1-.28-.1.46.46,0,0,1-.08-.38A4.11,4.11,0,0,1,86.16,123h19.11a1.55,1.55,0,0,1,1.2.52A1.58,1.58,0,0,1,106.77,124.74Z"/><path class="cls-2" d="M113.11,145.86a1.71,1.71,0,0,1-1.36-.6,1.79,1.79,0,0,1-.36-1.47l2.31-13.26a.59.59,0,0,1,.58-.49h2.84a.75.75,0,0,1,.73.88,1.42,1.42,0,0,0,.29,1.16,1.35,1.35,0,0,0,1.06.47l11.36,0a2,2,0,0,0,1.82-1.57l1-5.83a2.68,2.68,0,0,1,2.53-2.16,1.72,1.72,0,0,1,1.36.6,1.75,1.75,0,0,1,.35,1.47l-3.25,18.63a2.68,2.68,0,0,1-2.53,2.16,1.72,1.72,0,0,1-1.36-.6,1.75,1.75,0,0,1-.35-1.47l1.05-6.09a1.33,1.33,0,0,0-1.34-1.63l-11.36,0a1.94,1.94,0,0,0-1.82,1.56l-1.06,6.09A2.67,2.67,0,0,1,113.11,145.86Z"/><path class="cls-2" d="M115.27,123a4.09,4.09,0,0,0-3.82,3.3.19.19,0,0,0,0,.17.2.2,0,0,0,.16.07l6.84,0,.28-1.6a1.67,1.67,0,0,0-.33-1.37,1.63,1.63,0,0,0-1.26-.55Z"/><path class="cls-2" d="M177.06,123a4.08,4.08,0,0,0-3.82,3.3.23.23,0,0,0,0,.17.24.24,0,0,0,.17.07l6.84,0,.28-1.6a1.67,1.67,0,0,0-.33-1.37A1.63,1.63,0,0,0,179,123Z"/><path class="cls-2" d="M176.07,130a.47.47,0,0,0-.46.39l-2.3,13.26a1.66,1.66,0,0,0,.32,1.37,1.62,1.62,0,0,0,1.26.55,2.57,2.57,0,0,0,2.41-2.06l1.74-10a3,3,0,0,0-.67-2.44,2.94,2.94,0,0,0-2.26-1.07Z"/><path class="cls-2" d="M186.83,130.06a.43.43,0,0,0-.42.36L186,133c-.4,2.32-1,5.74-1.85,10.74a1.48,1.48,0,0,0,1.51,1.83h.18a2.46,2.46,0,0,0,2.3-2l.49-2.81a2.06,2.06,0,0,1,1.94-1.66l12.91,0a6.61,6.61,0,0,0,6.22-5.31l1-5.83a4.43,4.43,0,0,0-.89-3.67,4.29,4.29,0,0,0-3.38-1.49l-12.88,0H188a4.1,4.1,0,0,0-3.81,3.26v.19a.43.43,0,0,0,.08.19.45.45,0,0,0,.29.1l20,0a2,2,0,0,1,2,1.71,2.49,2.49,0,0,1,0,.86l-.66,3.83a3.29,3.29,0,0,1-3.09,2.64l-11.44,0a1.49,1.49,0,0,1-1.16-.52,1.51,1.51,0,0,1-.32-1.26l0-.27a3,3,0,0,0-.66-2.44,3,3,0,0,0-2.27-1.07Z"/><path class="cls-2" d="M85.34,142A2.47,2.47,0,0,0,83,144a1.64,1.64,0,0,0,.31,1.31,1.56,1.56,0,0,0,1.22.53l16,0a6.6,6.6,0,0,0,6.21-5.32l.42-2.39a4.44,4.44,0,0,0-.88-3.67,4.31,4.31,0,0,0-3.39-1.5l-12.78,0a1.69,1.69,0,0,1-1.69-1,2.46,2.46,0,0,0-2.26-1.52H84.75a.24.24,0,0,0-.23.2l-.08.46a4.46,4.46,0,0,0,.88,3.67,4.33,4.33,0,0,0,3.39,1.49l12.77,0a1.93,1.93,0,0,1,1.53.69,2,2,0,0,1,.41,1.66l-.21,1.21a2.76,2.76,0,0,1-2.6,2.23Z"/><path class="cls-2" d="M145.51,139.67l1-5.74a3,3,0,0,0-.66-2.44,3,3,0,0,0-2.27-1.07h-.28a.23.23,0,0,0-.23.2l-.34,2c-.32,1.85-.75,4.39-1.4,8.1a4.46,4.46,0,0,0,.89,3.67,4.29,4.29,0,0,0,3.38,1.49l11.46,0a1.67,1.67,0,0,1,1.46,1.15l.34,1.5a1.54,1.54,0,0,0,1.25,1.19,2.46,2.46,0,0,0,2.49-1.21,2.05,2.05,0,0,0,.28-1.5,2,2,0,0,1,1-2A6.59,6.59,0,0,0,167,140.5L169.15,128a4.44,4.44,0,0,0-.88-3.68,4.29,4.29,0,0,0-3.38-1.49l-14.3,0H144.9a3.82,3.82,0,0,0-2.47,1,4.14,4.14,0,0,0-1.36,2.29v.09a.53.53,0,0,0,.05.18h0a.32.32,0,0,0,.32.18h2.48l19.12,0a2,2,0,0,1,1.53.68,2,2,0,0,1,.41,1.67l-1.85,10.85a2.76,2.76,0,0,1-2.6,2.23l-13.09,0a1.93,1.93,0,0,1-1.53-.69,2,2,0,0,1-.41-1.66"/><path d="M96.43,87.74h0A4.13,4.13,0,0,0,91.61,91l-.75,4.3a4.11,4.11,0,0,0,3.43,4.7h0a.17.17,0,0,0,.19-.14l2.09-12A.16.16,0,0,0,96.43,87.74Z"/><path d="M123.6,76.91,116.78,116h-15L109,74.41a3.76,3.76,0,0,1,4.39-3l7.1,1.21A3.74,3.74,0,0,1,123.6,76.91Z"/><path d="M99.72,109.84,96,109.2a2,2,0,0,1-1.65-2.26l4.51-25.86a2,2,0,0,1,2.32-1.58l3.75.64a2,2,0,0,1,1.65,2.26L102,108.26A2,2,0,0,1,99.72,109.84Z"/><path d="M205.26,110.33l-.75,4.3A4,4,0,0,1,204,116h-4.15l1.78-10.2a.15.15,0,0,1,.15-.13h0A4.11,4.11,0,0,1,205.26,110.33Z"/><path d="M194.48,89.05,189.79,116h-15l5.13-29.41a3.77,3.77,0,0,1,4.39-3l7.1,1.22A3.72,3.72,0,0,1,194.48,89.05Z"/><path d="M201.8,98.71l-3,17.25h-7.95l3.24-18.57a2,2,0,0,1,2.32-1.58l3.75.64A2,2,0,0,1,201.8,98.71Z"/><path d="M120.63,100l.63-3.63a2,2,0,0,1,2.32-1.58l50.27,8.6a2,2,0,0,1,1.65,2.26l-.64,3.63a2,2,0,0,1-2.31,1.58l-50.28-8.6A2,2,0,0,1,120.63,100Z"/></svg>